<?xml version="1.0" standalone="no"?>
<!DOCTYPE svg PUBLIC "-//W3C//DTD SVG 20010904//EN"
 "http://www.w3.org/TR/2001/REC-SVG-20010904/DTD/svg10.dtd">
<svg version="1.0" xmlns="http://www.w3.org/2000/svg"
 width="700.000000pt" height="700.000000pt" viewBox="0 0 700.000000 700.000000"
 preserveAspectRatio="xMidYMid meet">
<metadata>
Created by potrace 1.11, written by Peter Selinger 2001-2013
</metadata>
<g transform="translate(0.000000,700.000000) scale(0.100000,-0.100000)"
fill="#000000" stroke="none">
<path d="M3290 6990 c-738 -49 -1408 -307 -1978 -763 -163 -130 -409 -376
-539 -539 -427 -533 -684 -1166 -754 -1853 -17 -176 -15 -531 5 -710 85 -747
388 -1418 890 -1974 505 -558 1207 -950 1948 -1085 303 -56 698 -72 990 -41
1055 112 1965 660 2558 1541 511 758 700 1725 515 2633 -200 983 -812 1829
-1689 2335 -413 238 -885 392 -1356 440 -191 20 -435 26 -590 16z m681 -109
c314 -47 606 -129 884 -248 653 -280 1212 -771 1582 -1390 610 -1021 637
-2315 70 -3363 -77 -143 -236 -383 -341 -515 -111 -139 -418 -443 -556 -549
-505 -389 -1032 -611 -1670 -702 -148 -21 -563 -30 -730 -15 -1424 126 -2610
1109 -2999 2486 -38 137 -66 271 -92 445 -27 176 -37 581 -20 771 60 662 303
1275 717 1809 115 149 427 461 574 574 512 395 1111 642 1710 705 58 6 119 13
135 15 17 2 158 3 315 1 222 -3 315 -8 421 -24z"/>
<path d="M2096 4709 c-214 -35 -376 -264 -337 -475 42 -227 259 -386 472 -346
335 62 469 452 240 695 -62 66 -129 103 -218 122 -75 16 -86 16 -157 4z"/>
<path d="M4826 4709 c-119 -19 -241 -110 -296 -219 -129 -256 19 -549 303
-601 218 -40 440 122 475 346 20 127 -19 255 -107 348 -62 66 -129 103 -218
122 -75 16 -86 16 -157 4z"/>
<path d="M1604 3059 c-29 -33 -469 -239 -586 -274 -95 -30 -89 -22 -91 -109
-2 -64 -6 -81 -22 -92 -18 -13 -18 -14 7 -14 14 0 70 -11 126 -25 56 -14 115
-25 131 -25 16 0 89 29 163 65 73 36 153 72 178 79 39 11 45 17 48 42 6 64 11
74 40 75 19 0 8 7 -38 23 -81 28 -112 45 -108 57 2 6 39 27 83 47 68 31 91 37
149 37 l69 0 -77 34 c-79 36 -89 50 -59 83 9 10 14 18 11 18 -3 0 -13 -10 -24
-21z m-154 -264 c7 -50 -4 -75 -33 -75 -35 0 -227 -83 -286 -123 -66 -46 -81
-39 -81 39 0 58 7 66 70 78 19 4 91 33 160 66 69 32 134 58 145 57 15 -2 21
-11 25 -42z"/>
<path d="M5615 2980 c-22 -17 -52 -35 -66 -40 -27 -11 -27 -11 -13 -58 17 -56
13 -72 -21 -72 -35 0 -80 24 -139 73 -43 36 -48 38 -41 16 4 -13 18 -40 31
-59 12 -19 30 -51 38 -71 18 -43 29 -53 79 -68 20 -7 42 -21 47 -32 8 -13 17
-18 33 -14 15 4 77 -18 187 -66 91 -39 179 -77 197 -85 17 -7 41 -25 52 -40
l21 -27 46 43 c37 34 50 41 71 35 l25 -6 -21 38 c-12 21 -30 63 -40 93 -11 31
-20 45 -20 33 -1 -33 -48 -83 -78 -83 -14 0 -68 20 -120 45 -51 25 -99 45
-106 46 -24 1 -181 84 -191 102 -8 12 -8 22 0 35 13 20 91 82 104 82 16 0 52
-44 71 -88 10 -23 25 -45 33 -48 8 -3 36 2 63 11 109 37 284 -10 385 -103 32
-30 58 -51 58 -47 0 23 -106 131 -173 175 -109 73 -178 93 -289 86 -101 -7
-121 3 -147 74 -9 24 -20 45 -26 46 -5 2 -28 -10 -50 -26z"/>
<path d="M1779 2916 c12 -16 21 -42 21 -58 0 -17 4 -27 10 -23 19 12 10 45
-21 77 -28 29 -29 30 -10 4z"/>
<path d="M5280 2765 c0 -33 29 -145 45 -173 l14 -27 0 40 c0 72 -15 136 -38
158 -20 21 -21 21 -21 2z"/>
<path d="M5435 2643 c-11 -7 -28 -12 -38 -9 -13 3 -17 0 -13 -9 3 -8 11 -41
17 -74 13 -59 13 -59 44 -54 38 6 50 0 254 -127 109 -69 153 -102 158 -118 5
-23 9 -24 60 -17 36 4 59 3 69 -5 18 -16 18 -9 -1 32 -8 18 -19 52 -25 76 -10
40 -13 42 -48 42 -34 0 -106 37 -262 135 -20 12 -55 32 -78 44 -24 12 -60 39
-80 60 -35 36 -39 38 -57 24z"/>
<path d="M1540 2634 c1 -10 2 -24 1 -31 -1 -12 -253 -184 -325 -222 -26 -13
-49 -18 -64 -14 -23 5 -24 4 -18 -18 4 -13 10 -52 13 -86 5 -59 4 -63 -18 -72
l-24 -10 25 0 c14 -1 61 -8 105 -18 78 -16 135 -13 135 7 0 6 -10 6 -26 -1
-53 -19 -84 12 -84 86 0 31 6 37 108 101 59 37 123 80 142 94 51 39 81 53 91
43 13 -13 -7 -72 -33 -100 -26 -27 -18 -38 35 -47 37 -7 40 -5 93 53 31 33 66
61 77 63 44 6 15 23 -43 25 -86 4 -134 34 -76 49 20 5 25 13 28 49 l3 43 -56
6 c-31 3 -64 8 -73 12 -13 5 -17 2 -16 -12z"/>
<path d="M6311 2593 c7 -12 15 -20 18 -17 3 2 -3 12 -13 22 -17 16 -18 16 -5
-5z"/>
<path d="M5347 2449 c-37 -20 -40 -20 -58 -3 -20 18 -20 17 -10 -10 14 -34 14
-123 1 -131 -5 -3 -19 -1 -30 5 -15 8 -27 7 -52 -6 -30 -16 -32 -15 -49 7 -24
32 -24 19 0 -23 11 -18 25 -55 32 -81 10 -43 14 -48 34 -43 25 6 69 -20 154
-93 118 -102 211 -195 211 -213 0 -24 2 -23 58 17 27 19 64 41 83 49 30 13 36
13 53 -2 11 -9 17 -12 13 -6 -3 6 -18 68 -32 138 -14 70 -30 136 -35 146 -6
11 -72 63 -147 116 -74 53 -143 110 -152 125 -19 34 -24 34 -74 8z m92 -156
c25 -27 82 -73 126 -103 93 -64 135 -103 135 -123 0 -16 -79 -67 -103 -67 -9
0 -29 17 -45 38 -16 20 -65 66 -108 102 -42 36 -96 81 -118 101 l-40 36 44 32
c24 17 48 31 53 31 6 0 31 -21 56 -47z"/>
<path d="M1585 2218 c-110 -110 -217 -198 -242 -198 -15 0 -17 -16 -3 -25 5
-3 17 -31 27 -61 l17 -56 -24 -19 -25 -19 55 0 c30 0 99 -3 152 -7 l97 -6 123
123 c68 67 139 134 159 147 l37 24 -34 67 c-40 79 -42 100 -12 111 17 6 3 10
-52 14 -41 4 -95 8 -120 11 l-45 4 -110 -110z m220 -33 l19 -37 -39 -32 c-22
-17 -86 -75 -143 -128 -57 -54 -110 -98 -117 -98 -18 0 -43 38 -50 76 -5 27 1
34 82 96 49 37 115 92 147 123 64 60 69 60 101 0z"/>
<path d="M4978 2297 c-5 -10 -8 -34 -8 -52 0 -19 -5 -56 -11 -83 -10 -48 -9
-51 19 -82 17 -18 33 -46 36 -62 4 -23 10 -28 24 -24 13 4 35 -12 78 -57 131
-134 234 -257 234 -278 0 -18 4 -20 26 -15 75 19 87 19 102 0 13 -17 14 -14 8
36 -3 30 -6 65 -6 78 0 19 -5 22 -38 22 -36 0 -44 8 -172 146 -74 81 -137 151
-139 157 -2 5 4 14 13 19 23 13 19 38 -9 71 -27 31 -40 34 -49 12 -3 -8 -12
-15 -20 -15 -23 0 -74 72 -78 110 -2 27 -5 31 -10 17z"/>
<path d="M4808 2145 c-3 -11 -9 -36 -13 -55 -3 -19 -11 -56 -17 -81 -10 -41
-9 -50 9 -75 11 -16 23 -45 27 -65 5 -31 10 -36 29 -32 15 3 26 -3 36 -18 7
-12 60 -85 118 -162 64 -86 107 -152 110 -172 l5 -31 56 4 c45 4 58 1 69 -14
11 -15 13 -8 13 59 l0 77 -34 0 c-32 0 -40 7 -98 86 -35 47 -89 120 -120 162
-32 42 -58 82 -58 89 0 7 9 17 20 23 26 14 25 18 -9 58 -26 31 -31 32 -51 20
-20 -12 -24 -10 -50 21 -21 25 -30 47 -32 80 -2 32 -5 40 -10 26z"/>
<path d="M2118 2124 c-4 -3 -39 -11 -79 -18 -71 -12 -74 -13 -80 -43 -5 -27
-63 -109 -131 -188 -9 -11 -40 -49 -69 -84 -28 -35 -65 -71 -80 -80 -25 -14
-29 -22 -29 -62 0 -29 -6 -51 -15 -59 -24 -20 -14 -21 40 -5 26 8 61 15 77 15
22 0 28 5 28 21 0 11 16 44 35 72 50 75 217 278 238 291 16 9 25 4 58 -34 43
-50 49 -74 20 -90 -11 -5 -64 -65 -118 -132 -54 -67 -115 -142 -135 -166 -30
-34 -38 -52 -38 -82 0 -26 -6 -43 -17 -50 -20 -13 -16 -12 95 16 56 15 62 19
62 43 0 32 32 81 138 209 83 101 147 165 173 174 10 4 2 18 -27 50 -49 53 -61
83 -42 105 12 15 10 15 -17 0 -17 -8 -46 -17 -64 -19 -35 -3 -35 -3 -36 42 -1
28 4 52 13 63 14 15 13 25 0 11z"/>
<path d="M4548 2054 c-24 -13 -28 -21 -28 -59 0 -87 43 -133 46 -49 1 21 7 52
13 67 13 33 14 57 4 57 -5 -1 -20 -8 -35 -16z"/>
<path d="M4420 1970 c-22 -31 -22 -36 16 -140 11 -32 34 22 34 81 0 94 -14
110 -50 59z"/>
<path d="M2678 1888 c-33 -43 -51 -78 -44 -85 10 -11 69 21 103 54 43 44 43
63 -1 63 -26 0 -39 -7 -58 -32z"/>
<path d="M2813 1858 c-28 -20 -63 -66 -63 -82 0 -14 38 -5 54 13 9 10 29 21
44 24 15 3 36 12 46 20 19 14 19 15 -12 31 -38 20 -31 20 -69 -6z"/>
<path d="M4535 1828 c4 -9 -5 -49 -19 -90 -14 -41 -26 -86 -26 -100 0 -35 31
-59 82 -64 43 -3 43 -3 6 5 -47 10 -68 27 -68 57 0 32 32 51 105 63 92 14 129
-19 88 -79 -29 -44 -75 -88 -104 -101 -16 -6 -29 -15 -29 -19 0 -4 29 -56 65
-116 36 -60 68 -126 71 -146 6 -35 9 -38 41 -38 35 0 72 -15 85 -34 4 -6 8 12
8 41 0 29 5 64 12 78 9 21 18 25 52 24 61 -1 89 -12 103 -39 11 -22 12 -15 11
53 -1 70 -3 80 -23 89 -12 5 -40 40 -62 76 -60 99 -163 308 -163 333 0 17 -4
20 -22 15 -13 -3 -58 -11 -101 -17 -70 -10 -80 -9 -98 7 -16 15 -19 15 -14 2z
m238 -260 c95 -172 109 -205 98 -227 -16 -29 -71 -29 -98 2 -12 12 -38 56 -58
97 -36 72 -37 77 -26 120 12 45 27 70 41 70 5 0 24 -28 43 -62z"/>
<path d="M4357 1747 c-4 -10 -7 -25 -7 -33 0 -27 -42 -114 -55 -114 -8 0 -16
14 -20 30 -5 25 -12 30 -35 30 -16 0 -32 5 -36 11 -5 9 -23 -29 -50 -111 -3
-9 4 -19 18 -25 29 -13 38 -32 105 -224 41 -118 53 -165 50 -193 l-5 -38 41 0
c76 0 118 -11 127 -34 5 -12 9 -15 9 -9 1 7 19 54 42 104 33 74 39 95 31 113
-10 20 -11 19 -11 -7 -2 -52 -17 -67 -69 -67 -26 0 -52 4 -58 8 -5 4 -31 66
-56 137 -25 72 -54 151 -64 177 -32 82 14 88 82 11 l31 -36 18 46 c19 50 16
62 -38 129 -17 21 -33 55 -36 75 -5 29 -8 34 -14 20z"/>
<path d="M2675 1725 c-11 -8 -49 -22 -85 -31 -89 -22 -94 -26 -108 -81 -22
-80 -114 -305 -145 -352 -28 -43 -28 -45 -10 -58 37 -26 83 -77 83 -93 0 -9
-6 -22 -12 -29 -7 -7 6 -4 29 8 24 12 81 35 127 52 47 17 90 37 97 45 16 20
50 101 98 234 21 58 47 120 57 139 16 28 17 34 4 39 -8 3 -36 25 -62 50 -47
44 -60 75 -35 85 8 4 7 6 -3 6 -8 0 -24 -6 -35 -14z m-20 -137 c40 -27 42 -35
16 -86 -11 -21 -35 -85 -55 -142 -43 -123 -66 -170 -83 -170 -8 0 -29 15 -49
33 l-35 32 49 105 c27 58 59 134 71 170 33 94 31 93 86 58z"/>
<path d="M2950 1669 c0 -6 -25 -37 -55 -68 -48 -50 -53 -60 -40 -71 20 -17 19
-27 -11 -155 -38 -156 -84 -296 -100 -302 -25 -9 -15 -19 51 -53 66 -33 102
-71 88 -93 -5 -9 -3 -9 8 -1 8 6 57 44 109 84 52 39 101 83 109 98 7 14 24 86
37 161 26 149 29 161 52 210 15 32 15 35 -2 45 -11 6 -30 21 -45 32 -22 19
-23 24 -12 38 7 9 9 16 3 16 -5 0 -15 -7 -23 -16 -17 -20 -105 -65 -113 -57
-3 4 -6 16 -6 29 0 12 -11 29 -25 38 -27 18 -32 45 -13 64 9 9 9 12 0 12 -7 0
-12 -5 -12 -11z m83 -170 c12 -6 32 -20 44 -31 l21 -20 -19 -46 c-11 -25 -29
-95 -40 -156 -28 -151 -38 -186 -54 -192 -18 -7 -105 53 -105 72 0 9 7 30 15
47 8 18 31 95 50 172 48 188 42 178 88 154z"/>
<path d="M3823 1598 c-5 -7 -14 -24 -21 -38 -7 -14 -26 -40 -41 -59 -31 -38
-57 -35 -47 6 6 20 2 26 -24 34 -16 6 -30 18 -30 26 0 13 -3 13 -15 3 -8 -7
-15 -17 -15 -22 0 -6 -13 -27 -30 -48 -34 -43 -36 -50 -15 -50 24 0 31 -32 50
-232 15 -147 16 -193 7 -213 -17 -37 -15 -42 19 -49 17 -3 51 -15 76 -26 38
-17 44 -23 38 -42 -5 -20 -3 -20 17 6 13 16 40 49 61 73 44 53 70 100 62 113
-11 18 -21 11 -30 -22 -14 -45 -35 -55 -85 -38 -23 7 -45 21 -49 29 -5 9 -11
61 -15 116 -3 55 -11 135 -18 178 -8 55 -8 81 -1 88 17 17 57 -15 78 -61 10
-22 22 -40 26 -40 15 0 49 58 49 83 0 14 -9 47 -21 74 -14 34 -19 59 -15 86 7
39 4 45 -11 25z"/>
<path d="M3380 1565 c-14 -15 -50 -42 -81 -61 l-56 -35 -8 -180 c-6 -165 -14
-248 -31 -321 -6 -25 -4 -28 21 -28 40 0 131 -29 145 -45 10 -12 10 -18 0 -30
-8 -10 -9 -15 -1 -15 34 0 161 211 147 246 -6 15 -11 9 -21 -29 -7 -27 -17
-53 -22 -58 -6 -6 -34 -3 -79 8 -63 17 -69 21 -72 47 -3 23 7 37 63 89 65 60
119 127 148 183 14 28 13 32 -25 94 -22 36 -52 79 -68 95 -15 17 -30 38 -32
48 -3 17 -6 16 -28 -8z m44 -200 c23 -48 20 -106 -7 -146 -23 -35 -71 -68 -82
-57 -8 7 11 254 20 269 9 14 49 -24 69 -66z"/>
</g>
</svg>
