<?xml version="1.0" encoding="utf-8"?>
<!-- Generator: Adobe Illustrator 23.0.5, SVG Export Plug-In . SVG Version: 6.00 Build 0)  -->
<svg version="1.1" xmlns="http://www.w3.org/2000/svg" xmlns:xlink="http://www.w3.org/1999/xlink" x="0px" y="0px"
	 viewBox="0 0 107.6 38.3" style="enable-background:new 0 0 107.6 38.3;" xml:space="preserve">
<style type="text/css">
	.st0{fill:#FFFFFF;}
</style>
<g id="US">
	<g>
		<path d="M7.6,38.3c-0.3,0-0.6,0-0.9,0c-0.6,0-1.2,0-1.9-0.2c-0.6-0.1-1.2-0.3-1.7-0.5c-0.5-0.3-1-0.6-1.4-1s-0.8-0.9-1-1.4
			c-0.3-0.5-0.4-1-0.5-1.7S0,32.1,0,31.6c0-0.2,0-0.9,0-0.9V7.6c0,0,0-0.7,0-0.9c0-0.5,0-1.2,0.2-1.9c0.1-0.6,0.3-1.2,0.5-1.7
			c0.3-0.5,0.6-1,1-1.4s0.9-0.8,1.4-1c0.5-0.3,1.1-0.4,1.7-0.5C5.5,0.1,6.2,0,6.7,0h0.9H100h0.9c0.5,0,1.2,0,1.9,0.2
			c0.6,0.1,1.1,0.3,1.7,0.5c0.5,0.3,1,0.6,1.4,1s0.8,0.9,1,1.4c0.3,0.5,0.4,1.1,0.5,1.6c0.1,0.6,0.2,1.3,0.2,1.9c0,0.3,0,0.6,0,0.9
			c0,0.4,0,0.7,0,1.1v20.9c0,0.4,0,0.7,0,1.1c0,0.3,0,0.6,0,0.9c0,0.6-0.1,1.2-0.2,1.9c-0.1,0.6-0.3,1.2-0.5,1.7
			c-0.3,0.5-0.6,1-1,1.4s-0.9,0.8-1.4,1c-0.5,0.3-1,0.4-1.7,0.6c-0.6,0.1-1.3,0.1-1.9,0.2c-0.3,0-0.6,0-0.9,0h-1.1L7.6,38.3z"/>
	</g>
</g>
<g id="Layer_2">
	<path class="st0" d="M24.1,23.1c0,0.8-0.7,1.4-1.5,1.4c-0.9,0-1.4-0.5-1.4-1.4c0-0.9,0.7-2,2.6-2.1l0.3,0V23.1z M23.1,12.2
		c-4.6,0-7.1,1.9-7.1,3.8c0,1.6,1.1,2.5,3.1,2.5c1.7,0,2.9-0.6,2.9-1.5c0-0.1,0-0.3-0.1-0.4c0-0.1-0.1-0.3-0.1-0.5
		c0-0.2,0.1-0.9,1.1-0.9c1.2,0,1.2,1,1.2,1.6v2.7l-0.3,0c-6.1,0.2-9.2,1.6-9.2,4.4c0,2.3,2,3.7,5.2,3.7c1.8,0,3.7-0.9,4.4-2.1l0,0
		l6.3-8.6C30.5,14.6,28.2,12.2,23.1,12.2L23.1,12.2z"/>
	<path class="st0" d="M55.9,23.1c0,0.8-0.7,1.4-1.5,1.4c-0.9,0-1.4-0.5-1.4-1.4c0-0.9,0.7-2,2.6-2.1l0.3,0V23.1z M92.9,16.2v-3.9
		h-5.7V8.6H84c-1.2,2.6-3.5,3.8-6.5,3.8h-2.8v2.1l-2.1-2.1h-1.8h0c-3.8,0-6.7,2.1-6.7,4.8c0,3.9,4,4.6,6.9,5.2
		c1.7,0.3,2.8,0.5,2.8,1.3c0,0.5-0.3,1.1-1.5,1.1c-2.3,0-4.3-0.9-5.5-2.4H64v1.6c0,0.6-0.3,0.9-0.9,0.9c-0.4,0-0.8-0.2-0.8-0.9V17
		c0-2.3-2.3-4.8-7.5-4.8c-4.6,0-7.1,1.9-7.1,3.8c0,1.6,1.1,2.5,3.1,2.5c1.7,0,2.9-0.6,2.9-1.5c0-0.1,0-0.3-0.1-0.4
		c0-0.1-0.1-0.3-0.1-0.5c0-0.2,0.1-0.9,1.1-0.9c1.2,0,1.2,1,1.2,1.6v2.7l-0.3,0c-4.6,0.1-7.5,1-8.7,2.7h-1.9c-0.6,1.5-2,2.5-3.6,2.5
		c-1.7,0-3.2-1.6-3.2-4.6c0-3.1,1.5-4.6,3.2-4.6c1.1,0,1.7,0.8,1.7,1.4c0,0.4-0.2,0.7-0.3,0.9c-0.2,0.3-0.3,0.5-0.3,0.9
		c0,0.6,0.5,1.7,1.8,1.7c1.7,0,2.7-1.1,2.7-3c0-2.1-2.6-5-6.7-5c-4,0-8.3,2.7-8.3,7.7c0,5,4.3,7.7,8.3,7.7c2.7,0,4.9-1.2,6.2-3.2
		c0.3,1.9,2.3,3.2,5.1,3.2c1.8,0,3.7-0.9,4.4-2.1l0.3-0.4l0.2,0.4c0.6,1.2,2.5,2.1,4.5,2.1c1,0,1.8-0.2,2.6-0.6l0.4-0.2v0.4h3.8V26
		l0.5,0.4c0.9,0.8,2.6,1.3,4.6,1.3c4,0,6.7-2,6.7-4.9c0-3.9-3.8-4.6-6.6-5.1c-1.7-0.3-3.1-0.5-3.1-1.5c0-0.5,0.3-1,1.5-1
		c1.4,0,2.6,0.4,3.5,1h6.2v6.2c0,3.3,2,5.3,5.3,5.3c3.3,0,5.3-2,5.3-5.3v-1.8h-2.2v2.9c0,0.6-0.4,1.1-1,1.1c-0.5,0-0.9-0.5-0.9-1.1
		v-7.3H92.9L92.9,16.2z"/>
</g>
</svg>
