<svg xmlns="http://www.w3.org/2000/svg" xmlns:xlink="http://www.w3.org/1999/xlink" viewBox="0 0 522 522"><defs><style>.a,.b{fill:none;}.b{clip-path:url(#a);clip-rule:evenodd;}.c{clip-path:url(#d);}.d{clip-path:url(#e);}.e{fill:#fff;}.f{clip-path:url(#f);}.g{clip-path:url(#g);}</style><clipPath id="a"><rect class="a" width="512" height="512"/></clipPath><clipPath id="d" transform="translate(5 5)"><rect class="a" width="512" height="512"/></clipPath><clipPath id="e" transform="translate(5 5)"><path class="b" d="M320.86,239.4c-18.35,0-27.73,14.45-27.73,36.2,0,20.57,10.14,36,27.73,36,19.89,0,27.34-18.2,27.34-36,0-18.59-9.38-36.2-27.35-36.2m-48.75-54h21.8v52.21h.38c5.93-9.88,18.36-16,29.45-16C354.89,221.6,370,246.14,370,276c0,27.48-13.38,53.39-42.64,53.39-13.39,0-27.73-3.35-34.23-16.8h-.38v14H272.1V185.41h0"/></clipPath><clipPath id="f" transform="translate(5 5)"><path class="b" d="M450.39,258.6c-1.72-12.46-10.52-19.19-22.56-19.19-11.29,0-27.16,6.13-27.16,37.19,0,17,7.27,35,26.2,35,12.62,0,21.41-8.71,23.52-23.35h21.8c-4,26.51-19.89,41.14-45.32,41.14-31,0-48-22.74-48-52.8,0-30.86,16.25-55,48.76-55,22.94,0,42.45,11.87,44.55,37h-21.8"/></clipPath><clipPath id="g" transform="translate(5 5)"><polyline class="b" points="195.9 326.34 32.41 326.34 108.75 185.41 272.24 185.41 195.9 326.34"/></clipPath></defs><title>bandcamp-button-square-black</title><g class="c"><rect width="522" height="522"/></g><g class="d"><rect class="e" x="272.1" y="185.41" width="107.9" height="154"/></g><g class="f"><rect class="e" x="378.88" y="221.61" width="103.31" height="117.8"/></g><g class="g"><rect class="e" x="32.41" y="185.41" width="249.83" height="150.93"/></g></svg>