<?xml version="1.0" encoding="utf-8"?>
<!-- Generator: Adobe Illustrator 23.0.5, SVG Export Plug-In . SVG Version: 6.00 Build 0)  -->
<svg version="1.1" id="Layer_1" xmlns="http://www.w3.org/2000/svg" xmlns:xlink="http://www.w3.org/1999/xlink" x="0px" y="0px"
	 viewBox="0 0 16 16" style="enable-background:new 0 0 16 16;" xml:space="preserve">
<path d="M12.8,16C12.8,9,7,3.2,0,3.2V0c8.8,0,16,7.2,16,16H12.8z M2.2,11.6c1.2,0,2.2,1,2.2,2.2c0,1.2-1,2.2-2.2,2.2
	C1,16,0,15,0,13.8C0,12.6,1,11.6,2.2,11.6L2.2,11.6z M10.6,16H7.5c0-4.1-3.4-7.5-7.5-7.5V5.4C5.8,5.4,10.6,10.2,10.6,16z"/>
</svg>
